<?xml version="1.0" encoding="UTF-8"?>
<svg xmlns="http://www.w3.org/2000/svg" viewBox="0 0 1540 680" width="1540" height="680">
<defs>
  <style>
    @import url('https://fonts.googleapis.com/css2?family=JetBrains+Mono:wght@400;600;700&amp;display=swap');
    text { font-family: 'JetBrains Mono', 'SF Mono', 'Fira Code', 'Cascadia Code', monospace; }
  </style>
  <pattern id="scanlines" width="4" height="4" patternUnits="userSpaceOnUse">
    <rect width="4" height="2" fill="white" opacity="0.008"/>
  </pattern>
</defs>
<rect width="1540" height="680" fill="#1a1d23" rx="8"/>
<rect width="1540" height="680" fill="url(#scanlines)" rx="8"/>
<line x1="30" y1="16" x2="1510" y2="16" stroke="#2d3340" stroke-width="1"/>
<rect x="30" y="16" width="3" height="24" rx="1" fill="#4ade80" opacity="0.5"/>
<text x="46" y="32" font-family="'JetBrains Mono','SF Mono',monospace" font-size="12" font-weight="600" letter-spacing="2" fill="#8b95a5">DATABASE STATUS</text>
<text x="1502" y="32" font-family="'JetBrains Mono','SF Mono',monospace" font-size="10" fill="#5e6878" text-anchor="end" letter-spacing="1">SEC-000</text>
<rect x="34" y="46" width="359" height="130" rx="4" fill="#22262e" stroke="#2d3340" stroke-width="1"/>
<rect x="34" y="54" width="3" height="114" rx="1.5" fill="#4ade80" opacity="0.6"/>
<text x="50" y="74" font-family="'JetBrains Mono','SF Mono','Fira Code',monospace" font-size="11" font-weight="600" letter-spacing="1.5" fill="#8b95a5">INDEXED FUNCTIONS</text>
<text x="377" y="74" font-family="'JetBrains Mono','SF Mono',monospace" font-size="10" fill="#5e6878" text-anchor="end" letter-spacing="1">IDX</text>
<text x="50" y="126" font-family="'JetBrains Mono','SF Mono','Fira Code',monospace" font-size="40" font-weight="700" fill="#e8ecf2">11,661,885</text>
<text x="50" y="158" font-family="'JetBrains Mono','SF Mono',monospace" font-size="11" fill="#5e6878">Unique Keys</text>
<rect x="347" y="150" width="4" height="8" rx="1" fill="#3ec96a" opacity="0.7"/>
<rect x="353" y="144" width="4" height="14" rx="1" fill="#3ec96a" opacity="0.7"/>
<rect x="359" y="147" width="4" height="11" rx="1" fill="#3ec96a" opacity="0.7"/>
<rect x="365" y="142" width="4" height="16" rx="1" fill="#3ec96a" opacity="0.7"/>
<rect x="371" y="148" width="4" height="10" rx="1" fill="#3ec96a" opacity="0.7"/>
<rect x="405" y="46" width="359" height="130" rx="4" fill="#22262e" stroke="#2d3340" stroke-width="1"/>
<rect x="405" y="54" width="3" height="114" rx="1.5" fill="#4ade80" opacity="0.6"/>
<text x="421" y="74" font-family="'JetBrains Mono','SF Mono','Fira Code',monospace" font-size="11" font-weight="600" letter-spacing="1.5" fill="#8b95a5">STORAGE USED</text>
<text x="748" y="74" font-family="'JetBrains Mono','SF Mono',monospace" font-size="10" fill="#5e6878" text-anchor="end" letter-spacing="1">STD</text>
<text x="421" y="126" font-family="'JetBrains Mono','SF Mono','Fira Code',monospace" font-size="40" font-weight="700" fill="#e8ecf2">5.4 GB</text>
<text x="421" y="158" font-family="'JetBrains Mono','SF Mono',monospace" font-size="11" fill="#5e6878">Segment Data</text>
<rect x="718" y="150" width="4" height="8" rx="1" fill="#3ec96a" opacity="0.7"/>
<rect x="724" y="144" width="4" height="14" rx="1" fill="#3ec96a" opacity="0.7"/>
<rect x="730" y="147" width="4" height="11" rx="1" fill="#3ec96a" opacity="0.7"/>
<rect x="736" y="142" width="4" height="16" rx="1" fill="#3ec96a" opacity="0.7"/>
<rect x="742" y="148" width="4" height="10" rx="1" fill="#3ec96a" opacity="0.7"/>
<rect x="776" y="46" width="359" height="130" rx="4" fill="#22262e" stroke="#2d3340" stroke-width="1"/>
<rect x="776" y="54" width="3" height="114" rx="1.5" fill="#4ade80" opacity="0.6"/>
<text x="792" y="74" font-family="'JetBrains Mono','SF Mono','Fira Code',monospace" font-size="11" font-weight="600" letter-spacing="1.5" fill="#8b95a5">SEARCH DOCS</text>
<text x="1119" y="74" font-family="'JetBrains Mono','SF Mono',monospace" font-size="10" fill="#5e6878" text-anchor="end" letter-spacing="1">DOC</text>
<text x="792" y="126" font-family="'JetBrains Mono','SF Mono','Fira Code',monospace" font-size="40" font-weight="700" fill="#e8ecf2">11,661,885</text>
<text x="792" y="158" font-family="'JetBrains Mono','SF Mono',monospace" font-size="11" fill="#5e6878">Searchable</text>
<rect x="1089" y="150" width="4" height="8" rx="1" fill="#3ec96a" opacity="0.7"/>
<rect x="1095" y="144" width="4" height="14" rx="1" fill="#3ec96a" opacity="0.7"/>
<rect x="1101" y="147" width="4" height="11" rx="1" fill="#3ec96a" opacity="0.7"/>
<rect x="1107" y="142" width="4" height="16" rx="1" fill="#3ec96a" opacity="0.7"/>
<rect x="1113" y="148" width="4" height="10" rx="1" fill="#3ec96a" opacity="0.7"/>
<rect x="1147" y="46" width="359" height="130" rx="4" fill="#22262e" stroke="#2d3340" stroke-width="1"/>
<rect x="1147" y="54" width="3" height="114" rx="1.5" fill="#4ade80" opacity="0.6"/>
<text x="1163" y="74" font-family="'JetBrains Mono','SF Mono','Fira Code',monospace" font-size="11" font-weight="600" letter-spacing="1.5" fill="#8b95a5">UNIQUE BINARIES</text>
<text x="1490" y="74" font-family="'JetBrains Mono','SF Mono',monospace" font-size="10" fill="#5e6878" text-anchor="end" letter-spacing="1">BIN</text>
<text x="1163" y="126" font-family="'JetBrains Mono','SF Mono','Fira Code',monospace" font-size="40" font-weight="700" fill="#e8ecf2">8,355</text>
<text x="1163" y="158" font-family="'JetBrains Mono','SF Mono',monospace" font-size="11" fill="#5e6878">Observed</text>
<rect x="1460" y="150" width="4" height="8" rx="1" fill="#3ec96a" opacity="0.7"/>
<rect x="1466" y="144" width="4" height="14" rx="1" fill="#3ec96a" opacity="0.7"/>
<rect x="1472" y="147" width="4" height="11" rx="1" fill="#3ec96a" opacity="0.7"/>
<rect x="1478" y="142" width="4" height="16" rx="1" fill="#3ec96a" opacity="0.7"/>
<rect x="1484" y="148" width="4" height="10" rx="1" fill="#3ec96a" opacity="0.7"/>
<line x1="30" y1="200" x2="1510" y2="200" stroke="#2d3340" stroke-width="1"/>
<rect x="30" y="200" width="3" height="24" rx="1" fill="#4ade80" opacity="0.5"/>
<text x="46" y="216" font-family="'JetBrains Mono','SF Mono',monospace" font-size="12" font-weight="600" letter-spacing="2" fill="#8b95a5">TRAFFIC ANALYSIS</text>
<text x="1502" y="216" font-family="'JetBrains Mono','SF Mono',monospace" font-size="10" fill="#5e6878" text-anchor="end" letter-spacing="1">SEC-001</text>
<rect x="34" y="230" width="482" height="130" rx="4" fill="#22262e" stroke="#2d3340" stroke-width="1"/>
<rect x="34" y="238" width="3" height="114" rx="1.5" fill="#4ade80" opacity="0.6"/>
<text x="50" y="258" font-family="'JetBrains Mono','SF Mono','Fira Code',monospace" font-size="11" font-weight="600" letter-spacing="1.5" fill="#8b95a5">QUERIES PROCESSED</text>
<text x="500" y="258" font-family="'JetBrains Mono','SF Mono',monospace" font-size="10" fill="#5e6878" text-anchor="end" letter-spacing="1">QRY</text>
<text x="50" y="310" font-family="'JetBrains Mono','SF Mono','Fira Code',monospace" font-size="40" font-weight="700" fill="#e8ecf2">47,341,442</text>
<text x="50" y="342" font-family="'JetBrains Mono','SF Mono',monospace" font-size="11" fill="#5e6878">Total Lookups</text>
<rect x="470" y="334" width="4" height="8" rx="1" fill="#3ec96a" opacity="0.7"/>
<rect x="476" y="328" width="4" height="14" rx="1" fill="#3ec96a" opacity="0.7"/>
<rect x="482" y="331" width="4" height="11" rx="1" fill="#3ec96a" opacity="0.7"/>
<rect x="488" y="326" width="4" height="16" rx="1" fill="#3ec96a" opacity="0.7"/>
<rect x="494" y="332" width="4" height="10" rx="1" fill="#3ec96a" opacity="0.7"/>
<rect x="528" y="230" width="482" height="130" rx="4" fill="#22262e" stroke="#2d3340" stroke-width="1"/>
<rect x="528" y="238" width="3" height="114" rx="1.5" fill="#4ade80" opacity="0.6"/>
<text x="544" y="258" font-family="'JetBrains Mono','SF Mono','Fira Code',monospace" font-size="11" font-weight="600" letter-spacing="1.5" fill="#8b95a5">UPSTREAM RELAY</text>
<text x="994" y="258" font-family="'JetBrains Mono','SF Mono',monospace" font-size="10" fill="#5e6878" text-anchor="end" letter-spacing="1">UPS</text>
<text x="544" y="310" font-family="'JetBrains Mono','SF Mono','Fira Code',monospace" font-size="40" font-weight="700" fill="#e8ecf2">11,067</text>
<text x="544" y="342" font-family="'JetBrains Mono','SF Mono',monospace" font-size="11" fill="#5e6878">Lumina Requests</text>
<rect x="964" y="334" width="4" height="8" rx="1" fill="#3ec96a" opacity="0.7"/>
<rect x="970" y="328" width="4" height="14" rx="1" fill="#3ec96a" opacity="0.7"/>
<rect x="976" y="331" width="4" height="11" rx="1" fill="#3ec96a" opacity="0.7"/>
<rect x="982" y="326" width="4" height="16" rx="1" fill="#3ec96a" opacity="0.7"/>
<rect x="988" y="332" width="4" height="10" rx="1" fill="#3ec96a" opacity="0.7"/>
<rect x="1022" y="230" width="482" height="130" rx="4" fill="#22262e" stroke="#2d3340" stroke-width="1"/>
<rect x="1022" y="238" width="3" height="114" rx="1.5" fill="#4ade80" opacity="0.6"/>
<text x="1038" y="258" font-family="'JetBrains Mono','SF Mono','Fira Code',monospace" font-size="11" font-weight="600" letter-spacing="1.5" fill="#8b95a5">UPSTREAM FETCHED</text>
<text x="1488" y="258" font-family="'JetBrains Mono','SF Mono',monospace" font-size="10" fill="#5e6878" text-anchor="end" letter-spacing="1">FTC</text>
<text x="1038" y="310" font-family="'JetBrains Mono','SF Mono','Fira Code',monospace" font-size="40" font-weight="700" fill="#e8ecf2">430,902</text>
<text x="1038" y="342" font-family="'JetBrains Mono','SF Mono',monospace" font-size="11" fill="#5e6878">From Origin</text>
<rect x="1458" y="334" width="4" height="8" rx="1" fill="#3ec96a" opacity="0.7"/>
<rect x="1464" y="328" width="4" height="14" rx="1" fill="#3ec96a" opacity="0.7"/>
<rect x="1470" y="331" width="4" height="11" rx="1" fill="#3ec96a" opacity="0.7"/>
<rect x="1476" y="326" width="4" height="16" rx="1" fill="#3ec96a" opacity="0.7"/>
<rect x="1482" y="332" width="4" height="10" rx="1" fill="#3ec96a" opacity="0.7"/>
<line x1="30" y1="384" x2="1510" y2="384" stroke="#2d3340" stroke-width="1"/>
<rect x="30" y="384" width="3" height="24" rx="1" fill="#4ade80" opacity="0.5"/>
<text x="46" y="400" font-family="'JetBrains Mono','SF Mono',monospace" font-size="12" font-weight="600" letter-spacing="2" fill="#8b95a5">INDEX OPERATIONS</text>
<text x="1502" y="400" font-family="'JetBrains Mono','SF Mono',monospace" font-size="10" fill="#5e6878" text-anchor="end" letter-spacing="1">SEC-002</text>
<rect x="34" y="414" width="359" height="130" rx="4" fill="#22262e" stroke="#2d3340" stroke-width="1"/>
<rect x="34" y="422" width="3" height="114" rx="1.5" fill="#4ade80" opacity="0.6"/>
<text x="50" y="442" font-family="'JetBrains Mono','SF Mono','Fira Code',monospace" font-size="11" font-weight="600" letter-spacing="1.5" fill="#8b95a5">NEW FUNCTIONS</text>
<text x="377" y="442" font-family="'JetBrains Mono','SF Mono',monospace" font-size="10" fill="#5e6878" text-anchor="end" letter-spacing="1">NEW</text>
<text x="50" y="494" font-family="'JetBrains Mono','SF Mono','Fira Code',monospace" font-size="40" font-weight="700" fill="#e8ecf2">5,116,967</text>
<text x="50" y="526" font-family="'JetBrains Mono','SF Mono',monospace" font-size="11" fill="#5e6878">Unique Indexed</text>
<rect x="347" y="518" width="4" height="8" rx="1" fill="#3ec96a" opacity="0.7"/>
<rect x="353" y="512" width="4" height="14" rx="1" fill="#3ec96a" opacity="0.7"/>
<rect x="359" y="515" width="4" height="11" rx="1" fill="#3ec96a" opacity="0.7"/>
<rect x="365" y="510" width="4" height="16" rx="1" fill="#3ec96a" opacity="0.7"/>
<rect x="371" y="516" width="4" height="10" rx="1" fill="#3ec96a" opacity="0.7"/>
<rect x="405" y="414" width="359" height="130" rx="4" fill="#22262e" stroke="#2d3340" stroke-width="1"/>
<rect x="405" y="422" width="3" height="114" rx="1.5" fill="#4ade80" opacity="0.6"/>
<text x="421" y="442" font-family="'JetBrains Mono','SF Mono','Fira Code',monospace" font-size="11" font-weight="600" letter-spacing="1.5" fill="#8b95a5">PULL OPERATIONS</text>
<text x="748" y="442" font-family="'JetBrains Mono','SF Mono',monospace" font-size="10" fill="#5e6878" text-anchor="end" letter-spacing="1">PUL</text>
<text x="421" y="494" font-family="'JetBrains Mono','SF Mono','Fira Code',monospace" font-size="40" font-weight="700" fill="#e8ecf2">16,511,206</text>
<text x="421" y="526" font-family="'JetBrains Mono','SF Mono',monospace" font-size="11" fill="#5e6878">Metadata Syncs</text>
<rect x="718" y="518" width="4" height="8" rx="1" fill="#3ec96a" opacity="0.7"/>
<rect x="724" y="512" width="4" height="14" rx="1" fill="#3ec96a" opacity="0.7"/>
<rect x="730" y="515" width="4" height="11" rx="1" fill="#3ec96a" opacity="0.7"/>
<rect x="736" y="510" width="4" height="16" rx="1" fill="#3ec96a" opacity="0.7"/>
<rect x="742" y="516" width="4" height="10" rx="1" fill="#3ec96a" opacity="0.7"/>
<rect x="776" y="414" width="359" height="130" rx="4" fill="#22262e" stroke="#2d3340" stroke-width="1"/>
<rect x="776" y="422" width="3" height="114" rx="1.5" fill="#4ade80" opacity="0.6"/>
<text x="792" y="442" font-family="'JetBrains Mono','SF Mono','Fira Code',monospace" font-size="11" font-weight="600" letter-spacing="1.5" fill="#8b95a5">PUSH OPERATIONS</text>
<text x="1119" y="442" font-family="'JetBrains Mono','SF Mono',monospace" font-size="10" fill="#5e6878" text-anchor="end" letter-spacing="1">PSH</text>
<text x="792" y="494" font-family="'JetBrains Mono','SF Mono','Fira Code',monospace" font-size="40" font-weight="700" fill="#e8ecf2">5,784,687</text>
<text x="792" y="526" font-family="'JetBrains Mono','SF Mono',monospace" font-size="11" fill="#5e6878">Submissions</text>
<rect x="1089" y="518" width="4" height="8" rx="1" fill="#3ec96a" opacity="0.7"/>
<rect x="1095" y="512" width="4" height="14" rx="1" fill="#3ec96a" opacity="0.7"/>
<rect x="1101" y="515" width="4" height="11" rx="1" fill="#3ec96a" opacity="0.7"/>
<rect x="1107" y="510" width="4" height="16" rx="1" fill="#3ec96a" opacity="0.7"/>
<rect x="1113" y="516" width="4" height="10" rx="1" fill="#3ec96a" opacity="0.7"/>
<rect x="1147" y="414" width="359" height="130" rx="4" fill="#22262e" stroke="#2d3340" stroke-width="1"/>
<rect x="1147" y="422" width="3" height="114" rx="1.5" fill="#4ade80" opacity="0.6"/>
<text x="1163" y="442" font-family="'JetBrains Mono','SF Mono','Fira Code',monospace" font-size="11" font-weight="600" letter-spacing="1.5" fill="#8b95a5">SCORING BATCHES</text>
<text x="1490" y="442" font-family="'JetBrains Mono','SF Mono',monospace" font-size="10" fill="#5e6878" text-anchor="end" letter-spacing="1">SCR</text>
<text x="1163" y="494" font-family="'JetBrains Mono','SF Mono','Fira Code',monospace" font-size="40" font-weight="700" fill="#e8ecf2">16,689</text>
<text x="1163" y="526" font-family="'JetBrains Mono','SF Mono',monospace" font-size="11" fill="#5e6878">Version Selection</text>
<rect x="1460" y="518" width="4" height="8" rx="1" fill="#3ec96a" opacity="0.7"/>
<rect x="1466" y="512" width="4" height="14" rx="1" fill="#3ec96a" opacity="0.7"/>
<rect x="1472" y="515" width="4" height="11" rx="1" fill="#3ec96a" opacity="0.7"/>
<rect x="1478" y="510" width="4" height="16" rx="1" fill="#3ec96a" opacity="0.7"/>
<rect x="1484" y="516" width="4" height="10" rx="1" fill="#3ec96a" opacity="0.7"/>
<rect x="30" y="568" width="1480" height="90" rx="4" fill="#1e2129" stroke="#2a2f3a" stroke-width="1"/>
<line x1="770" y1="578" x2="770" y2="648" stroke="#2a2f3a" stroke-width="1"/>
<text x="400" y="592" font-family="'JetBrains Mono','SF Mono',monospace" font-size="9" font-weight="600" letter-spacing="1.2" fill="#5e6878" text-anchor="middle">TOTAL RECORDS</text>
<text x="400" y="620" font-family="'JetBrains Mono','SF Mono','Fira Code',monospace" font-size="22" font-weight="700" fill="#e8ecf2" text-anchor="middle">14,754,354</text>
<line x1="380" y1="630" x2="420" y2="630" stroke="#2a2f3a" stroke-width="2"/>
<text x="400" y="646" font-family="'JetBrains Mono','SF Mono',monospace" font-size="9" fill="#4ade80" text-anchor="middle">+0.00/s</text>
<line x1="1510" y1="578" x2="1510" y2="648" stroke="#2a2f3a" stroke-width="1"/>
<text x="1140" y="592" font-family="'JetBrains Mono','SF Mono',monospace" font-size="9" font-weight="600" letter-spacing="1.2" fill="#5e6878" text-anchor="middle">VERSIONS SCORED</text>
<text x="1140" y="620" font-family="'JetBrains Mono','SF Mono','Fira Code',monospace" font-size="22" font-weight="700" fill="#e8ecf2" text-anchor="middle">55,040,807</text>
<line x1="1120" y1="630" x2="1160" y2="630" stroke="#2a2f3a" stroke-width="2"/>
<text x="1140" y="646" font-family="'JetBrains Mono','SF Mono',monospace" font-size="9" fill="#4ade80" text-anchor="middle">+0.00/s</text>
<text x="1520" y="678" font-size="9" fill="#5e6878" text-anchor="end" opacity="0.6">Updated 2026-04-16 06:54:19 UTC · Uptime 89d 20h 2m</text>
</svg>
